# xmcd
#
# Track frame offsets:
#	150
#	14441
#	29237
#	43715
#	57802
#	72751
#	93361
#	108018
#	134233
#	149457
#	163308
#	182063
#	192765
#	208105
#	225286
#
# Disc length: 3190 seconds
# Revision: 0
# Processed by: cddbd v1.5.2PL0 Copyright (c) Steve Scherf et al.
# Submitted via: dBpowerAMP V12.0
#
DISCID=d90c740f
DTITLE=Διάφοροι - Leventogenna Kriti Cd1
DYEAR=2013
DGENRE=Cretan
TTITLE0=O argaleios - Kostas Mountakis
TTITLE1=Tragoudi meraklidiko - Nikos Manias
TTITLE2=Filentem - Nikos Jilouris
TTITLE3=To meraklidiko pouli - Xaralampos Garganourakis
TTITLE4=Ta basaba mou xairomai - Berdiakis
TTITLE5=To parapono - Stelios Mpikakis
TTITLE6=Rwtw t agrimia tou bounou - Thanasis Skordalos
TTITLE7=Logia tou kosmou - Nikos Alefantinos
TTITLE8=Oso baroun ta sidera - Iwannis Mpirnidakis
TTITLE9=Zaxarozymwmeni mou - Basilis Skoulas
TTITLE10=Ws einai i spitha lamperi - Psarantwnis
TTITLE11=Anwgeianes kontylies - Nikos Jilouris
TTITLE12=Na kamw thelw taraxi - Nikos Jiloyris
TTITLE13=Toa giasemi - Stelios Mpikakis
TTITLE14=Egw eimai mauros ki asximos - Nikos Jilouris
EXTD=
EXTT0=
EXTT1=
EXTT2=
EXTT3=
EXTT4=
EXTT5=
EXTT6=
EXTT7=
EXTT8=
EXTT9=
EXTT10=
EXTT11=
EXTT12=
EXTT13=
EXTT14=
PLAYORDER=
